<?xml version="1.0" encoding="UTF-8" standalone="no"?>
<svg
   xmlns:dc="http://purl.org/dc/elements/1.1/"
   xmlns:cc="http://creativecommons.org/ns#"
   xmlns:rdf="http://www.w3.org/1999/02/22-rdf-syntax-ns#"
   xmlns:svg="http://www.w3.org/2000/svg"
   xmlns="http://www.w3.org/2000/svg"
   xmlns:sodipodi="http://sodipodi.sourceforge.net/DTD/sodipodi-0.dtd"
   xmlns:inkscape="http://www.inkscape.org/namespaces/inkscape"
   viewBox="0 0 24 24"
   enable-background="new 0 0 24 24"
   version="1.1"
   id="svg4"
   sodipodi:docname="save.svg"
   inkscape:version="0.92.2 (5c3e80d, 2017-08-06)">
  <metadata
     id="metadata10">
    <rdf:RDF>
      <cc:Work
         rdf:about="">
        <dc:format>image/svg+xml</dc:format>
        <dc:type
           rdf:resource="http://purl.org/dc/dcmitype/StillImage" />
      </cc:Work>
    </rdf:RDF>
  </metadata>
  <defs
     id="defs8" />
  <sodipodi:namedview
     pagecolor="#ffffff"
     bordercolor="#666666"
     borderopacity="1"
     objecttolerance="10"
     gridtolerance="10"
     guidetolerance="10"
     inkscape:pageopacity="0"
     inkscape:pageshadow="2"
     inkscape:window-width="640"
     inkscape:window-height="480"
     id="namedview6"
     showgrid="false"
     inkscape:zoom="9.8333333"
     inkscape:cx="12.98983"
     inkscape:cy="12.232361"
     inkscape:window-x="2176"
     inkscape:window-y="138"
     inkscape:window-maximized="0"
     inkscape:current-layer="svg4" />
  <path
     d="m 3.4519774,0.86440674 c -1.3672316,0 -2.48587566,1.11864406 -2.48587566,2.48587566 V 20.751413 c 0,1.367231 1.11864406,2.485875 2.48587566,2.485875 H 20.853108 c 1.367231,0 2.485875,-1.118644 2.485875,-2.485875 V 4.5932203 L 19.610169,0.86440674 Z M 7.180791,2.1073446 h 9.943503 V 8.3220338 H 7.180791 Z M 13.39548,3.3502824 V 7.079096 h 2.485876 V 3.3502824 Z M 5.9378531,12.050847 H 18.367231 c 0.745763,0 1.242938,0.497175 1.242938,1.242938 v 6.214689 c 0,0.745764 -0.497175,1.242939 -1.242938,1.242939 H 5.9378531 c -0.7457627,0 -1.2429378,-0.497175 -1.2429378,-1.242939 v -6.214689 c 0,-0.745763 0.4971751,-1.242938 1.2429378,-1.242938 z"
     id="path2"
     inkscape:connector-curvature="0"
     style="stroke-width:1.24293792" />
</svg>
